<?xml version="1.0" standalone="no"?><!DOCTYPE svg PUBLIC "-//W3C//DTD SVG 1.1//EN" "http://www.w3.org/Graphics/SVG/1.1/DTD/svg11.dtd"><svg t="1511694118054" class="icon" style="" viewBox="0 0 1024 1024" version="1.1" xmlns="http://www.w3.org/2000/svg" p-id="1003" xmlns:xlink="http://www.w3.org/1999/xlink" width="180" height="180"><defs><style type="text/css"></style></defs><path d="M845.913043 0H178.086957a178.086957 178.086957 0 0 0-178.086957 178.086957v667.826086a178.086957 178.086957 0 0 0 178.086957 178.086957h667.826086a178.086957 178.086957 0 0 0 178.086957-178.086957V178.086957a178.086957 178.086957 0 0 0-178.086957-178.086957z m155.826087 831.488A170.362435 170.362435 0 0 1 831.398957 1001.73913h-638.886957A170.340174 170.340174 0 0 1 22.26087 831.398957v-638.886957A170.317913 170.317913 0 0 1 192.601043 22.26087h638.886957A170.340174 170.340174 0 0 1 1001.73913 192.601043v638.886957z" fill="#13227a" p-id="1004"></path><path d="M481.480348 268.755478h-182.361044v508.616348h176.662261c79.782957 0 141.04487-23.28487 183.785739-69.810087 40.870957-44.655304 61.284174-106.139826 61.261913-184.498087 0-79.782957-19.010783-141.289739-57.010087-184.498087-40.826435-46.547478-101.62087-69.832348-182.338782-69.810087z m133.921391 405.325913c-33.725217 35.127652-83.567304 52.691478-149.570782 52.691479h-108.27687V319.421217h114.688v-0.089043c66.493217 0 115.46713 17.318957 146.765913 52.001391 29.45113 33.235478 44.143304 83.812174 44.143304 151.730087-0.022261 65.981217-15.938783 116.335304-47.749565 151.017739z" fill="#13227a" p-id="1005"></path></svg>